<svg width="357" height="80" viewBox="0 0 357 80" fill="none" xmlns="http://www.w3.org/2000/svg">
<g clip-path="url(#clip0_301_728)">
<path d="M8.00374 24.4237C7.3353 28.7421 4.66593 31.815 0 33.6449L0 33.3956C2.50117 31.9003 4.00187 30.319 4.5021 28.6604C2.16476 28.8249 0.750351 29.2411 0.250117 29.9065C0.582147 27.9128 1.16429 26.4991 2.00093 25.6698C2.33296 25.3352 4.3339 24.9221 8.00374 24.4237ZM129.06 37.6324C129.06 40.1246 128.56 42.2816 127.56 44.1109C126.559 46.2692 125.058 47.3514 123.058 47.3514C121.721 47.3514 120.721 47.2648 120.056 47.1028C120.056 47.9321 120.056 48.7614 120.056 49.595C120.056 52.9165 119.638 54.9919 118.806 55.8255C112.134 63.4654 105.881 67.2897 100.047 67.2897C97.5456 67.2897 95.6266 66.1252 94.2941 63.8C93.1254 61.9695 92.5432 59.8935 92.5432 57.5695C92.5432 53.7452 93.4574 49.0106 95.2945 43.3639C93.2936 44.8586 89.9558 47.9315 85.2898 52.585C80.1193 57.5695 76.3676 61.0592 74.0346 63.0523C69.6963 66.3745 66.1947 68.0368 63.5297 68.0368C61.5287 68.0368 59.7779 67.0791 58.2772 65.1707C56.7765 63.2592 56.0262 61.0579 56.0262 58.5657C56.0262 55.5745 57.0266 51.7508 59.0276 47.1022C58.6912 47.2654 58.2772 47.3508 57.777 47.3508C56.6083 47.3508 55.6079 47.2642 54.7756 47.1022C54.7756 47.9315 54.7756 48.7607 54.7756 49.5944C54.7756 52.9159 54.4392 54.909 53.7751 55.5757C45.9352 63.2162 39.6004 67.0399 34.7662 67.0399C32.2651 67.0399 30.3461 66.0424 29.0136 64.048C27.6773 62.0554 27.0126 59.6449 27.0126 56.8206C27.0126 55.8237 27.4266 53.6199 28.2632 50.2162C29.0955 46.8081 29.5138 43.8611 29.5138 41.3689C29.5138 39.3751 29.2637 37.4623 28.7634 35.6368C26.7625 35.1383 24.7616 33.7246 22.7606 31.4C20.7597 29.0717 19.4234 27.9103 18.7588 27.9103C17.9227 27.9103 16.5896 29.3209 14.7569 32.1477C13.42 34.3047 12.2557 36.466 11.2553 38.6268C15.0889 40.6206 17.0079 44.9389 17.0079 51.5857H15.7574C13.9209 50.7551 12.1694 49.8442 10.5049 48.8474C8.83663 47.6835 8.00374 45.9383 8.00374 43.6143C4.16632 45.4411 2.25105 47.9333 2.25105 51.091C2.25105 51.4218 3.87681 55.2417 7.12833 62.5545C10.3798 69.8629 12.0056 75.6779 12.0056 80H11.5054C11.169 77.3396 9.25432 72.4374 5.75269 65.2947C2.58308 58.6486 1.00047 53.8318 1.00047 50.8411C1.00047 46.5184 3.58355 42.5308 8.75409 38.8785C9.41878 36.7171 11.0871 33.8087 13.7564 30.1558C16.7578 25.833 19.1733 23.676 21.0098 23.676C21.6745 23.676 23.2609 25.1713 25.762 28.162C25.4256 27.3283 25.2618 26.4991 25.2618 25.6698C25.2618 23.5084 26.0122 21.6822 27.5129 20.1869C29.0136 18.6916 30.8463 17.9433 33.0154 17.9433C34.6806 17.9433 37.9321 18.7308 42.77 20.3115C47.6041 21.8878 51.8561 22.6791 55.5259 22.6791L52.5245 27.6636C50.1878 27.9944 46.4361 29.4897 41.2693 32.1495C36.7672 34.4735 33.0154 35.6386 30.014 35.6386C29.8458 35.6386 29.5138 35.6386 29.0136 35.6386C29.8464 37.9632 30.2641 40.4554 30.2641 43.1153C30.2641 45.2729 29.9709 47.6835 29.3887 50.3427C28.8022 53 28.5133 54.4941 28.5133 54.8293C28.5133 60.1446 30.6781 62.8037 35.0164 62.8037C38.1822 62.8037 41.8514 61.1414 46.0215 57.8193C48.6865 55.6579 51.1877 53.4162 53.525 51.091C53.525 49.9265 52.8566 48.0997 51.5241 45.6075C50.8556 44.1121 50.1053 42.6168 49.273 41.1221L51.0238 36.8854C52.5245 39.21 53.6069 40.7869 54.2754 41.6199C55.4403 42.7807 56.6909 43.3657 58.0271 43.3657C59.6923 43.3657 61.0285 42.7003 62.029 41.372C62.029 38.8797 61.8608 36.4692 61.5288 34.1439L57.2768 7.7271C57.1086 6.06791 56.7765 4.82181 56.2763 3.98878L57.5269 0.499065L62.029 8.72274V10.2181L59.7779 7.97508C59.6097 8.31028 59.6097 8.64112 59.7779 8.97259L63.5297 34.1433C63.6935 34.8056 63.7798 35.9707 63.7798 37.633C63.7798 42.6174 62.4429 45.6897 59.7779 46.8542C58.109 50.5072 57.2768 53.747 57.2768 56.5738C57.2768 58.0692 57.8589 59.4791 59.0276 60.8118C60.3601 62.3065 61.9433 63.0548 63.7798 63.0548C66.7812 63.0548 70.6149 60.8118 75.2852 56.3259C79.4515 52.5016 83.6216 48.6006 87.791 44.6125C90.9569 41.9514 94.0439 39.7097 97.0453 37.8829C96.2087 37.5489 94.9581 36.6368 93.2936 35.1421C90.9562 33.3115 89.792 31.2355 89.792 28.9115C89.792 25.0879 91.8748 23.1794 96.0449 23.1794C104.049 23.1794 112.717 24.5888 122.057 27.4162L118.806 32.4006C115.804 33.3981 110.383 35.5551 102.548 38.8804C103.38 40.2087 104.299 43.3664 105.299 48.3508C100.797 48.3508 98.546 47.0181 98.546 44.3632C98.546 44.0287 98.628 43.448 98.7962 42.6187C98.9606 41.7857 99.0463 41.2044 99.0463 40.8741C98.3778 41.3726 97.378 42.0336 96.0449 42.8667C94.376 48.1819 93.5437 52.1707 93.5437 54.8299C93.5437 60.1452 95.7948 62.8044 100.297 62.8044C105.131 62.8044 111.302 58.8991 118.806 51.0916C118.637 49.9271 117.969 48.1003 116.805 45.6081C115.969 44.2766 115.218 42.8667 114.554 41.3713L116.054 36.8854C117.555 39.3776 118.719 40.9545 119.556 41.6199C120.556 42.7807 121.807 43.3657 123.308 43.3657C124.972 43.3657 126.309 42.7003 127.309 41.372C127.141 38.8797 126.891 36.4692 126.559 34.1439L122.557 7.9757C122.221 6.14953 121.889 4.82118 121.557 3.98878L122.807 0.499065L127.059 8.72336V10.2187L125.058 7.97508C124.89 8.47414 124.89 8.89097 125.058 9.22118L128.81 34.1433C128.975 34.805 129.06 35.9695 129.06 37.6324ZM17.2581 15.4517C17.2581 18.2748 16.3395 19.6891 14.5068 19.6891C12.8379 19.6891 12.0056 18.7732 12.0056 16.9477C12.0056 15.7832 12.2557 14.3738 12.756 12.7109C13.7564 10.7171 14.2567 9.55639 14.2567 9.22118C14.5887 10.5539 14.6712 11.4648 14.5068 11.9626C16.3395 12.9595 17.2581 14.124 17.2581 15.4517ZM16.5077 16.4486C15.8393 15.6156 14.8394 15.0343 13.5063 14.704C12.8379 15.3664 12.5058 15.7819 12.5058 15.9502C12.5058 16.947 13.088 17.4455 14.2567 17.4455C15.0889 17.4455 15.8393 17.1103 16.5077 16.4486ZM23.2609 57.5701L21.51 60.3103C20.5096 60.6411 19.4235 60.8916 18.2585 61.0586C16.4214 61.7209 15.5072 62.4685 15.5072 63.3022C16.3401 66.6237 16.7578 68.9489 16.7578 70.2797C16.7578 73.271 16.6722 75.0156 16.5077 75.5128C16.5077 73.6822 16.1713 71.276 15.5072 68.2854C14.8394 65.2935 14.5068 63.3826 14.5068 62.5533C14.5068 61.0586 15.0458 60.0611 16.1325 59.5626C17.2149 59.0629 18.2585 58.6467 19.259 58.3165C18.5912 57.8168 18.0084 57.5688 17.5082 57.5688L16.0075 58.815V57.5688C16.5077 56.9028 16.9217 56.2798 17.2581 55.6997C17.5901 55.1153 18.0084 54.828 18.5086 54.828C19.5091 54.8287 21.0917 55.7396 23.2609 57.5701ZM25.2618 45.109L23.2609 49.0953L19.0089 47.1028L20.5096 43.6137L16.7578 41.6193L18.5086 37.633L23.0108 39.6268L21.2599 43.1153L25.2618 45.109ZM46.5217 25.919C45.5213 25.7508 43.1846 25.1713 39.5185 24.1738C36.5171 23.1776 34.1797 22.6791 32.5152 22.6791C28.6771 22.6791 26.7625 24.0891 26.7625 26.9159C26.7625 28.076 27.1771 29.2405 28.0131 30.405C28.6778 31.0673 29.5138 31.4025 30.5143 31.4025C32.8472 31.4025 35.5166 30.7364 38.518 29.4087C43.3521 27.2467 46.0215 26.0822 46.5217 25.919ZM48.7728 44.8598C46.2716 51.172 43.102 54.3302 39.2683 54.3302C36.4314 54.3302 35.0164 52.9988 35.0164 50.3427C35.0164 48.1813 36.8491 45.9396 40.5189 43.6143C39.8511 43.1153 39.1827 42.866 38.518 42.866C37.682 42.866 36.8491 43.2791 36.0168 44.1122V43.1153C36.8491 41.2847 38.0178 40.3738 39.5185 40.3738C42.0196 40.3738 44.0206 40.7047 45.5213 41.372L42.5199 44.1115C41.3512 44.4424 40.0575 45.1907 38.6431 46.3558C37.2243 47.5159 36.5171 48.5128 36.5171 49.3464C36.5171 50.8417 37.8496 51.5894 40.5189 51.5894C42.3523 51.5894 44.185 50.5925 46.0215 48.5994C46.8538 47.266 47.7723 46.0199 48.7728 44.8598ZM53.2749 10.9657C53.2749 12.9589 52.6065 13.9564 51.274 13.9564C50.6055 13.9564 49.9371 13.6255 49.273 12.9589C48.7728 14.2916 48.0224 14.9526 47.022 14.9526C45.8533 14.9526 45.2712 14.205 45.2712 12.7097C45.2712 11.7121 45.2712 10.7159 45.2712 9.719C44.9347 10.0542 44.5208 10.552 44.0206 11.2137V10.2168C44.3526 9.38754 45.1855 8.30841 46.5217 6.97695C46.0215 10.466 46.3535 12.2106 47.5222 12.2106C48.3545 12.2106 48.7728 11.6299 48.7728 10.4654C48.7728 9.96698 48.6046 8.97072 48.2726 7.47477L49.0229 5.98131C49.5231 6.81433 49.8558 8.06044 50.0234 9.71963C50.0234 10.8841 50.4379 11.4642 51.274 11.4642C51.7742 11.4642 52.0243 11.0511 52.0243 10.2181L51.274 6.97819L52.2744 5.23364C52.9391 7.39502 53.2749 9.30717 53.2749 10.9657ZM67.5316 53.8318C67.3633 56.1558 66.5311 57.3215 65.0304 57.3215C63.5297 57.3215 62.7793 56.5732 62.7793 55.0779C62.7793 52.9165 63.9443 50.4243 66.281 47.6012C65.1123 50.2573 64.5302 52.1688 64.5302 53.3333C64.5302 54.4928 64.9441 55.0779 65.7807 55.0779C66.613 55.0779 67.1132 54.6611 67.2814 53.8318H67.5316ZM72.5339 39.3769C72.5339 42.8654 72.1156 45.5221 71.2833 47.352H70.7831C70.9469 43.6953 70.7831 39.8754 70.2828 35.8885L65.7807 7.72648C65.6125 6.06729 65.2805 4.82118 64.7803 3.98816L66.0309 0.498442L70.2828 8.72274V10.2181L68.2819 7.97445C68.1137 8.30966 68.1137 8.6405 68.2819 8.97196L72.2838 35.6386C72.4476 36.4679 72.5339 37.714 72.5339 39.3769ZM83.7891 8.2243C83.7891 8.88972 83.539 9.63863 83.0388 10.4673C82.5386 9.96885 82.1202 9.72025 81.7882 9.72025C80.9522 9.72025 80.2875 10.8847 79.7873 13.2093C79.4509 14.7047 79.2008 16.3639 79.0369 18.1938C78.5367 16.8617 77.7007 15.1171 76.5358 12.9601C76.3676 13.7944 75.8673 14.2062 75.0351 14.2062C73.6982 14.2062 73.0341 13.4592 73.0341 11.9632C73.0341 10.1364 73.6169 9.22181 74.7849 9.22181C76.2856 9.22181 77.6181 10.967 78.7868 14.4555C79.7873 8.47414 81.0379 5.48349 82.5386 5.48349C83.3708 5.48287 83.7891 6.39813 83.7891 8.2243ZM84.0393 22.1807C83.3708 26.666 80.7877 29.7389 76.2856 31.4019L76.0355 31.1526C78.5367 29.6579 80.0374 28.076 80.5376 26.4174C78.2009 26.5813 76.7859 26.9975 76.2856 27.6636C76.6177 25.6698 77.1998 24.2561 78.0365 23.4268C78.3685 23.0922 80.3694 22.6791 84.0393 22.1807ZM83.7891 37.6324L81.7882 41.6187L77.5362 39.6262L79.5372 35.6386L83.7891 37.6324ZM88.2913 64.2991C88.2913 66.6237 87.4546 67.7888 85.7901 67.7888C84.2894 67.7888 83.539 67.0417 83.539 65.5452C83.539 63.3838 84.7033 60.8916 87.0407 58.0685H87.2908C85.9539 60.7246 85.2898 62.6368 85.2898 63.8006C85.2898 64.9607 85.7044 65.5452 86.5404 65.5452C87.3733 65.5452 87.8729 65.129 88.0411 64.2991H88.2913ZM92.7934 10.9657C92.7934 12.9589 92.3757 15.2025 91.5428 17.6947C91.7072 16.3632 91.7929 14.8717 91.7929 13.2087C91.7929 10.2181 90.8743 7.89346 89.0416 6.23053L89.2917 3.23988C90.4566 3.9053 91.332 5.0704 91.9179 6.72897C92.5001 8.3919 92.7934 9.80499 92.7934 10.9657ZM113.553 30.6542C108.883 28.6604 103.462 27.6636 97.2955 27.6636C94.2941 27.6636 92.2931 27.9944 91.2927 28.6604C91.2927 28.9913 92.375 29.9458 94.5442 31.5271C96.7089 33.1034 98.546 34.6424 100.047 36.1371C103.548 34.4741 108.05 32.648 113.553 30.6542ZM119.056 2.49221C119.056 3.48972 118.762 4.65421 118.18 5.98193C117.594 7.3134 116.886 8.30966 116.054 8.97259C117.055 6.97882 117.555 5.56947 117.555 4.73583C109.051 7.39564 101.297 11.8816 94.2941 18.1938C94.4585 17.3601 94.6261 16.5308 94.7943 15.7016C97.6275 12.8785 101.422 10.2187 106.175 7.72648C110.927 5.23364 115.218 3.4891 119.056 2.49221ZM112.803 46.3551C113.135 47.6835 112.803 48.4305 111.802 48.5988C111.302 48.7626 110.552 48.4305 109.551 47.6012C108.883 48.7614 107.8 50.3414 106.3 52.3371C104.463 54.4941 102.048 55.8268 99.0463 56.324L96.7952 56.8224C99.1282 55.6579 101.712 53.9956 104.549 51.838C106.882 50.0075 108.464 48.1813 109.301 46.3551C109.966 45.0231 110.552 44.276 111.052 44.1109C111.884 43.9452 112.466 44.6922 112.803 46.3551ZM114.804 16.6978C114.804 18.6916 114.135 19.6891 112.803 19.6891C112.134 19.6891 111.466 19.2723 110.802 18.443C110.302 19.7707 109.551 20.4361 108.551 20.4361C107.55 20.4361 106.964 19.7713 106.8 18.443C106.8 17.2785 106.8 16.1994 106.8 15.2031C106.464 15.7016 106.132 16.2 105.799 16.6978V15.9502C105.963 15.1171 106.714 14.0417 108.05 12.7103C107.55 16.0324 107.882 17.6947 109.051 17.6947C109.884 17.6947 110.302 17.1963 110.302 16.1994C110.302 15.7009 110.133 14.6231 109.801 12.9595L110.802 11.7134C111.134 12.3794 111.384 13.5439 111.552 15.2031C111.552 16.3639 111.967 16.9477 112.803 16.9477C113.303 16.9477 113.553 16.6125 113.553 15.9508C113.553 15.7826 113.303 14.7047 112.803 12.7109L113.803 10.7171C114.468 12.8779 114.804 14.8716 114.804 16.6978ZM112.302 47.1028C111.634 46.1053 110.884 45.8567 110.051 46.3551C111.052 47.0168 111.802 47.266 112.302 47.1028ZM135.063 57.3209C135.063 58.9794 134.563 59.8131 133.562 59.8131C132.894 59.8131 132.144 59.5645 131.311 59.0648C128.474 64.2143 123.221 66.7065 115.554 66.5414H115.304V66.2928C122.807 64.4623 127.892 61.8885 130.561 58.5676C129.725 58.2324 129.31 57.734 129.31 57.0729C129.31 56.5732 129.561 55.99 130.061 55.3271C130.561 54.6623 130.975 54.3302 131.311 54.3302L131.061 53.3333L131.311 53.0841C131.643 53.0841 132.226 53.415 133.062 54.081V54.3302C134.395 55.8255 135.063 56.8224 135.063 57.3209ZM137.814 39.3769C137.814 42.8654 137.397 45.5221 136.564 47.352H136.064C136.227 43.6953 135.977 39.8754 135.313 35.8885L131.061 7.72648C130.725 6.06729 130.393 4.82118 130.061 3.98816L131.311 0.498442L135.563 8.72274V10.2181L133.562 7.97445C133.394 8.30966 133.312 8.6405 133.312 8.97196L137.564 35.6386C137.729 36.4679 137.814 37.714 137.814 39.3769ZM132.312 56.0748C132.312 55.7396 132.144 55.5757 131.812 55.5757C131.144 55.5757 130.643 55.8249 130.311 56.3234C130.643 56.8218 131.144 57.1526 131.812 57.3209C131.812 57.1526 131.893 56.9464 132.062 56.6978C132.226 56.4486 132.312 56.238 132.312 56.0748ZM356.667 46.8536C356.667 49.1782 356.123 51.091 355.04 52.5857C353.954 54.0798 352.746 54.8287 351.414 54.8287C348.912 54.8287 347.162 53.2474 346.161 50.0928C345.494 53.2474 344.074 54.8287 341.909 54.8287C339.908 54.8287 338.572 53.4959 337.909 50.8417C336.571 53.9963 334.239 55.5769 330.905 55.5769C329.737 55.5769 328.779 55.1178 328.028 54.2069C327.279 53.2916 326.902 52.2511 326.902 51.0916C326.902 50.5925 326.902 50.1763 326.902 49.8455C303.391 57.1539 279.38 60.8118 254.868 60.8118C243.027 60.8118 231.439 59.8143 220.102 57.8199C209.261 56.1576 201.175 53.9146 195.841 51.0916C195.841 53.4156 195.754 55.7408 195.591 58.0692H195.091C193.09 56.7377 191.84 55.1607 191.339 53.334C191.171 52.0012 191.046 50.7551 190.964 49.5956C190.877 48.4312 189.837 47.8498 187.838 47.8498C186.001 47.8498 182.874 50.5072 178.458 55.8262C174.038 61.1408 170.662 63.8012 168.329 63.8012C166.992 63.8012 165.827 63.1782 164.827 61.9321C163.827 60.686 163.326 58.9807 163.326 56.823C163.326 55.6586 163.576 54.2455 164.077 52.5863C163.241 52.9171 162.408 53.0847 161.575 53.0847C158.238 53.0847 156.073 50.8417 155.072 46.3558C154.736 51.8386 152.235 54.5801 147.569 54.5801C145.568 54.5801 144.067 53.4972 143.067 51.3402C142.399 49.6773 142.148 47.7657 142.316 45.6081C142.316 45.2735 142.48 44.1128 142.817 42.119C142.981 40.4561 143.067 38.9607 143.067 37.633C141.898 39.2922 141.066 41.4536 140.566 44.1115C140.23 45.9389 139.898 47.7645 139.565 49.5956C138.897 52.5863 137.814 54.0804 136.314 54.0804C135.145 54.0804 134.145 53.1234 133.312 51.2143C132.476 49.3028 132.062 47.2654 132.062 45.1084C132.062 42.7801 132.226 40.2062 132.562 37.3826L133.062 37.6318C132.894 38.9595 132.812 40.2878 132.812 41.6181C132.812 47.2648 133.977 50.0928 136.314 50.0928C137.146 50.0928 137.896 48.8467 138.565 46.3545C139.729 42.1994 140.397 39.7888 140.566 39.1265C141.731 36.3003 143.231 34.3913 145.068 33.395V36.6343C144.399 40.9533 144.067 43.6131 144.067 44.61C144.067 48.2617 145.4 50.0928 148.069 50.0928C149.734 50.0928 151.196 49.4268 152.446 48.0991C153.697 46.7676 154.322 45.1907 154.322 43.3639L152.571 33.6449L153.822 30.1558C154.654 31.815 155.154 33.1464 155.323 34.1427C155.823 36.9657 156.237 39.8748 156.573 42.8654C157.574 47.0168 159.406 49.096 162.076 49.096C163.74 49.096 164.909 48.4312 165.577 47.1034C164.741 45.2729 163.909 43.4467 163.076 41.6193C161.908 38.6293 161.239 36.3009 161.075 34.6424L160.325 32.8972L161.325 29.4081L164.827 34.891V36.1371C164.327 35.8019 163.827 35.3894 163.326 34.891C163.158 35.2218 163.158 35.3894 163.326 35.3894C165.659 40.7047 166.828 44.3614 166.828 46.3558C166.828 49.3464 166.16 51.3402 164.827 52.3377C164.327 53.9963 164.077 55.2424 164.077 56.076C164.077 58.4 165.242 59.5657 167.578 59.5657C169.743 59.5657 172.995 56.8629 177.333 51.466C181.666 46.0648 185.086 43.3664 187.588 43.3664C188.42 43.3664 189.589 43.8648 191.089 44.8611L192.34 41.8698C194.673 45.1913 201.594 48.2629 213.1 51.0903C226.27 54.0804 241.363 55.5757 258.371 55.5757C269.875 55.5757 282.546 54.5788 296.388 52.585C308.394 50.7545 319.231 48.5115 328.904 45.8561C328.568 46.3545 328.403 46.9333 328.403 47.6006C328.403 48.5981 328.735 49.509 329.404 50.3408C330.069 51.1707 330.819 51.5869 331.656 51.5869C333.32 51.5869 335.072 50.7539 336.907 49.0947L340.159 45.8567L340.409 46.1059C340.409 46.4368 340.409 46.7682 340.409 47.1034C340.409 49.4268 341.241 50.5925 342.91 50.5925C343.742 50.5925 344.661 49.8455 345.66 48.3495C346.825 46.3558 347.661 45.1919 348.161 44.8598H348.412C348.412 45.1907 348.412 45.5221 348.412 45.8573C348.412 47.185 348.868 48.3888 349.787 49.471C350.702 50.5489 351.577 51.091 352.413 51.091C354.079 51.091 354.915 50.4255 354.915 49.0966C354.915 47.6025 353.664 44.6118 351.163 40.1259C348.493 35.3053 347.075 32.4 346.911 31.4031C346.743 31.0679 346.493 30.6118 346.16 30.0324C345.825 29.448 345.66 29.0741 345.66 28.9109L346.411 25.1726L351.413 30.4056V31.4019L349.162 30.4044V30.9034C350.494 32.8966 351.827 34.8903 353.163 36.8847C355.498 41.0355 356.667 44.3614 356.667 46.8536ZM134.313 58.0685C133.977 57.734 133.477 57.1533 132.812 56.324L132.312 57.5701C132.812 57.9009 133.312 58.0685 133.813 58.0685C133.977 58.0685 134.145 58.0685 134.313 58.0685ZM164.077 0C164.077 0.833022 163.74 1.91215 163.076 3.23988C162.408 4.57134 161.74 5.65047 161.075 6.47975C162.076 4.48598 162.576 2.99003 162.576 1.99377C152.235 5.319 143.481 10.2181 136.314 16.6978C136.314 15.8648 136.478 14.9533 136.814 13.957C139.647 11.3016 143.982 8.47414 149.82 5.48287C155.323 2.65981 160.075 0.833022 164.077 0ZM153.572 58.3178C153.572 59.147 153.235 59.9763 152.571 60.81C152.235 60.3103 151.821 60.0623 151.321 60.0623C150.485 60.0623 149.82 61.1402 149.32 63.3022C149.152 64.9607 148.902 66.6237 148.569 68.2866C148.233 67.1221 147.401 65.3776 146.068 63.053C145.9 64.0498 145.482 64.5483 144.818 64.5483C143.317 64.5483 142.567 63.7146 142.567 62.0561C142.567 60.3931 143.231 59.5639 144.568 59.5639C145.9 59.5639 147.233 61.3084 148.569 64.7969C149.402 58.815 150.652 55.8255 152.321 55.8255C153.153 55.8255 153.572 56.6548 153.572 58.3178ZM154.072 21.433C154.072 23.4268 153.322 24.4237 151.821 24.4237C151.321 24.4237 150.652 24.0069 149.82 23.1776C149.484 24.5053 148.733 25.1713 147.569 25.1713C146.568 25.1713 145.982 24.5053 145.818 23.1776C145.818 22.0131 145.818 20.9346 145.818 19.9377C145.482 20.4361 145.15 20.9352 144.818 21.433V20.4361C145.15 19.7713 145.9 18.7738 147.069 17.4455C146.732 20.767 147.069 22.4299 148.069 22.4299C148.902 22.4299 149.32 21.8455 149.32 20.6854C149.32 20.3502 149.152 19.3533 148.82 17.6947L149.82 16.4486C150.32 17.1109 150.57 18.2748 150.57 19.9377C150.735 21.0978 151.235 21.6822 152.071 21.6822C152.571 21.6822 152.821 21.3483 152.821 20.6854C152.821 20.5178 152.571 19.4393 152.071 17.4455L152.821 15.4517C153.654 17.6093 154.072 19.6025 154.072 21.433ZM160.325 18.6916C160.325 20.6854 159.907 22.9283 159.074 25.4206C159.239 24.0891 159.324 22.5944 159.324 20.9352C159.324 17.9439 158.406 15.6156 156.573 13.957L156.823 10.7171C157.824 11.5502 158.657 12.7963 159.324 14.4555C159.988 16.1134 160.325 17.5271 160.325 18.6916ZM173.831 39.3769C173.831 42.8654 173.495 45.5221 172.831 47.352H172.331C172.494 43.6953 172.244 39.8754 171.58 35.8885L167.328 7.72648C166.992 6.06729 166.66 4.82118 166.328 3.98816L167.578 0.498442L171.83 8.72274V10.2181L169.829 7.97445C169.661 8.30966 169.579 8.6405 169.579 8.97196L173.831 35.6386C173.831 36.4679 173.831 37.714 173.831 39.3769ZM189.839 56.5726C190.004 58.0679 189.67 58.8978 188.838 59.0648C188.338 59.0648 187.501 58.7308 186.337 58.0679C185.67 59.2287 184.668 60.724 183.336 62.5539C181.335 64.7109 178.834 66.124 175.832 66.7906L173.831 67.0399C175.996 66.0424 178.498 64.4611 181.335 62.3041C183.836 60.3097 185.5 58.3975 186.337 56.5713C187.002 55.2399 187.501 54.4922 187.838 54.3283C188.67 54.3302 189.338 55.0779 189.839 56.5726ZM188.338 11.9626C188.338 12.628 188.088 13.3769 187.588 14.2056C187.087 13.7072 186.669 13.4586 186.337 13.4586C185.5 13.4586 184.837 14.5402 184.336 16.6978C184 18.5252 183.75 20.1875 183.586 21.6822C183.251 20.5184 182.418 18.8561 181.085 16.6978C180.916 17.5277 180.417 17.9439 179.585 17.9439C178.248 17.9439 177.584 17.1969 177.584 15.7009C177.584 13.8741 178.166 12.9595 179.335 12.9595C180.836 12.9595 182.168 14.7047 183.337 18.1931C184.337 12.2118 185.588 9.22118 187.089 9.22118C187.92 9.22118 188.338 10.1364 188.338 11.9626ZM189.088 25.6698L187.336 28.4112C186.336 28.7414 185.25 29.0735 184.085 29.4081C182.248 29.9065 181.335 30.6542 181.335 31.6511C182.167 34.8056 182.585 37.0486 182.585 38.3807C182.585 41.3713 182.499 43.1159 182.336 43.6137C182.336 41.7832 182 39.4162 181.335 36.5115C180.668 33.6025 180.334 31.7333 180.334 30.9041C180.334 29.2411 180.873 28.1626 181.96 27.6642C183.042 27.1657 184.085 26.7489 185.086 26.4181C184.25 26.0829 183.586 25.9196 183.086 25.9196C183.251 25.9196 182.75 26.2498 181.586 26.9165L181.835 25.6704C182.167 25.172 182.543 24.5489 182.961 23.8012C183.375 23.0536 183.836 22.6798 184.336 22.6798C185.336 22.6791 186.92 23.676 189.088 25.6698ZM189.338 57.3209C188.671 56.3234 187.92 56.0748 187.087 56.5726C187.92 57.2349 188.67 57.4841 189.338 57.3209ZM194.591 50.5919C194.091 50.2573 193.34 49.5097 192.339 48.3489C192.339 49.1782 192.546 50.1315 192.964 51.215C193.378 52.2935 193.839 52.8349 194.34 52.8349C194.505 52.8343 194.591 52.0872 194.591 50.5919ZM323.151 61.0592C322.315 61.0592 321.732 60.5601 321.4 59.5645C320.232 61.0592 319.149 61.8075 318.149 61.8075C317.813 61.8075 317.275 61.5583 316.523 61.0604C315.773 60.5607 315.311 60.3115 315.147 60.3115C314.311 60.3115 312.728 60.8112 310.395 61.8069C307.392 63.1346 304.974 64.1315 303.14 64.7981C299.471 65.9576 295.469 66.5421 291.135 66.5421L290.886 66.0436C294.551 66.0436 298.221 65.2953 301.891 63.8C303.892 63.134 306.725 61.8062 310.396 59.8131C313.061 58.3184 314.98 57.5695 316.148 57.5695C316.48 57.5695 316.981 57.9003 317.648 58.567C318.313 59.2293 318.899 59.5645 319.399 59.5645C320.064 59.5645 320.814 58.7308 321.652 57.0723L322.401 56.5726C322.232 57.9016 322.651 58.567 323.651 58.567C324.153 58.567 324.653 57.7333 325.152 56.0748L325.652 55.8262C325.652 59.3146 324.816 61.0592 323.151 61.0592ZM342.91 15.7009C342.91 16.3632 342.574 17.1963 341.908 18.1931C341.408 17.5271 340.99 17.1963 340.658 17.1963C339.822 17.1963 339.158 18.3558 338.657 20.6854C338.489 22.1807 338.239 23.7576 337.908 25.4206C337.406 24.2567 336.57 22.5944 335.407 20.4361C335.237 21.266 334.738 21.6822 333.906 21.6822C332.569 21.6822 331.905 20.9352 331.905 19.4393C331.905 17.6087 332.488 16.6978 333.656 16.6978C335.157 16.6978 336.489 18.443 337.658 21.9315C338.658 15.9502 339.909 12.9595 341.41 12.9595C342.41 12.9595 342.91 13.8748 342.91 15.7009ZM340.909 34.891C340.909 37.8816 339.991 39.3769 338.158 39.3769C336.489 39.3769 335.657 38.4617 335.657 36.6355C335.657 35.4716 335.989 34.0579 336.659 32.3988C337.659 30.405 338.158 29.2411 338.158 28.9097C338.49 30.2374 338.573 31.1526 338.408 31.6505C340.073 32.648 340.909 33.7265 340.909 34.891ZM340.159 36.1371C339.491 35.3041 338.49 34.6424 337.158 34.1433C336.657 34.9732 336.407 35.4717 336.407 35.6386C336.407 36.4679 336.99 36.8847 338.158 36.8847C338.99 36.8847 339.659 36.6355 340.159 36.1371ZM352.665 59.8131L350.914 63.8L346.662 61.5558L348.413 57.5695L352.665 59.8131Z" fill="white"/>
</g>
<defs>
<clipPath id="clip0_301_728">
<rect width="356.667" height="80" fill="white"/>
</clipPath>
</defs>
</svg>
